<?xml version="1.0" encoding="UTF-8"?>
<!DOCTYPE svg PUBLIC "-//W3C//DTD SVG 1.1//EN" "http://www.w3.org/Graphics/SVG/1.1/DTD/svg11.dtd">
<svg xmlns="http://www.w3.org/2000/svg" version="1.1" width="128px" height="128px" style="shape-rendering:geometricPrecision; text-rendering:geometricPrecision; image-rendering:optimizeQuality; fill-rule:evenodd; clip-rule:evenodd" xmlns:xlink="http://www.w3.org/1999/xlink">
    <g><path fill="#FFFFFF" stroke-width="0.8" d="M 51.5,11.5 C 68.3827,9.10965 84.0493,12.2763 98.5,21C 110.576,31.231 115.076,44.0643 112,59.5C 111.167,60.3333 110.333,61.1667 109.5,62C 78.8333,62.6667 48.1667,62.6667 17.5,62C 13.6951,57.9089 12.5284,53.0755 14,47.5C 15.3083,35.1977 21.1416,25.6977 31.5,19C 37.8779,15.3787 44.5446,12.8787 51.5,11.5 Z M 62.5,19.5 C 73.8674,19.4684 84.2007,22.6351 93.5,29C 100.827,35.4904 104.494,43.6571 104.5,53.5C 77.1667,53.5 49.8333,53.5 22.5,53.5C 23.2094,36.9565 31.5428,26.4565 47.5,22C 52.6428,21.1617 57.6428,20.3284 62.5,19.5 Z"/></g>
    <g><path fill="#FFFFFF" stroke-width="0.8" d="M 60.5,27.5 C 67.1584,26.3445 69.1584,28.8445 66.5,35C 59.7496,36.4689 57.7496,33.9689 60.5,27.5 Z"/></g>
    <g><path fill="#FFFFFF" stroke-width="0.8" d="M 39.5,32.5 C 46.4863,32.331 48.153,35.1643 44.5,41C 37.808,41.1156 36.1413,38.2823 39.5,32.5 Z"/></g>
    <g><path fill="#FFFFFF" stroke-width="0.8" d="M 82.5,32.5 C 89.2248,32.2044 90.8915,34.8711 87.5,40.5C 80.4089,41.5305 78.7422,38.8639 82.5,32.5 Z"/></g>
    <g><path fill="#FFFFFF" stroke-width="0.8" d="M 28.5,65.5 C 31.6074,65.3512 34.6074,65.8512 37.5,67C 40.4532,69.793 43.7865,71.9597 47.5,73.5C 51.7008,70.8056 56.0342,68.3056 60.5,66C 63.594,65.3482 66.594,65.6815 69.5,67C 72.4532,69.793 75.7865,71.9597 79.5,73.5C 82.6483,72.4213 85.315,70.588 87.5,68C 96.033,64.0607 103.366,65.7273 109.5,73C 115.599,73.9983 116.932,76.9983 113.5,82C 111.5,82.6667 109.5,82.6667 107.5,82C 103.122,80.1249 99.1217,77.6249 95.5,74.5C 92.3603,76.473 89.3603,78.6397 86.5,81C 81.8333,83 77.1667,83 72.5,81C 69.6397,78.6397 66.6397,76.473 63.5,74.5C 60.3603,76.473 57.3603,78.6397 54.5,81C 49.8333,83 45.1667,83 40.5,81C 37.6397,78.6397 34.6397,76.473 31.5,74.5C 28.3603,76.473 25.3603,78.6397 22.5,81C 19.2068,82.6079 15.8734,82.7745 12.5,81.5C 11.359,79.5787 11.1923,77.5787 12,75.5C 17.9072,72.7428 23.4072,69.4095 28.5,65.5 Z"/></g>
    <g><path fill="#FFFFFF" stroke-width="0.8" d="M 18.5,85.5 C 48.5019,85.3334 78.5019,85.5 108.5,86C 110.667,86.8333 112.167,88.3333 113,90.5C 115.272,102.125 111.106,110.292 100.5,115C 75.8333,115.667 51.1667,115.667 26.5,115C 15.8945,110.292 11.7278,102.125 14,90.5C 15.025,88.313 16.525,86.6464 18.5,85.5 Z M 22.5,94.5 C 49.8333,94.5 77.1667,94.5 104.5,94.5C 104.662,99.545 102.662,103.378 98.5,106C 86.8734,107.097 75.2068,107.597 63.5,107.5C 51.7932,107.597 40.1266,107.097 28.5,106C 24.0739,103.538 22.0739,99.7043 22.5,94.5 Z"/></g>
</svg>